<svg xmlns="http://www.w3.org/2000/svg" width="2830.71" height="4155.857"><path d="M18085.3 13439.2c-1539.7-1528.4-1471.8-5964.9 1277-6657 0 0 617.7-2449.6 2182.6-1852.9 764.6 291.5 1036.3 1189 828.9 1916.5-277.8 974.3-750.4 1836-1140.9 2329.7-482.4 609.8-385.9 2080.5 617.1 3399.5l-3764.7 864.2" style="fill:#fff;fill-opacity:1;fill-rule:nonzero;stroke:none" transform="matrix(.13333 0 0 -.13333 -1035.998 4674.986)"/><path d="M21545 4929.1c-630.2-239.9-1106.4 13.3-1451.3 401.9-511.2 576.8-731.4 1451.3-731.4 1451.3-2415.9 608.5-2760.7 4109-1763.6 5985.5 137.5 258.4 300.2 486.3 486.7 671.2l3436.7-788.9 327.9-75.2c-56.6-74.3-110.1-149.1-161.1-224.3-850.9-1257.9-911.2-2599.5-456.2-3175 3.2-4.4 7.2-9.2 11.3-14.8 211.8-270.1 445.7-645.5 659.5-1087.2 56.7-116.9 111.7-238.3 164.8-363.7 114.9-272.1 219.4-562.7 305.4-864.1 207.4-727.5-64.3-1624.9-828.7-1916.7" style="fill:#fff;fill-opacity:1;fill-rule:nonzero;stroke:none" transform="matrix(.13333 0 0 -.13333 -1035.998 4674.986)"/><path d="M21068.1 5004.4c-153.6 0-300.2 36.9-442.2 110.7-100.1 52-192.9 119.8-278.5 198.3 26.2-.7 52.5-1.1 78.8-1.1 463.5 0 927.6 123.1 1230.5 560.1 239.5 345.6-283.7 624.1-718.6 1673.9-331.2 798.2-210.2 1462.1-428.8 1692.8-544.7 575.2-2462.1 769.6-2869.4 3225.5 17.4 39.2 35.3 77.8 53.7 115.7 8.8-20.8 17.7-41.6 26.8-62.4 188.9-422.8 446.7-829.9 806.9-1147.1 177.9-158.2 384.9-291.4 597.7-391.6 207.7-100.1 426.9-185.7 652.1-249.4 225.4-63 453.9-104.7 678.9-136 115.8-16.3 231.1-30.6 346-44-48.7-405.1-17.3-772 82.6-1069.3 4.5-370.1 34.7-740.7 100-1106.8 33.9-193.2 76.1-385.3 130.5-574.5 24.9-95.2 57.2-188.5 87-282.4 33.8-92.6 65.5-186.1 104.5-277 143-356.5 334.3-694.8 563.3-1005.8 26.3-93 54.6-178.6 85.2-266.9 34.1-97.5 70.4-194.1 109.9-289.5 7.8-19.2 15.8-38.4 23.9-57.6-129.8-234.8-329.9-427.9-604.3-532.5-145.2-55.4-283.5-83.1-416.5-83.1" style="fill:#b9afbe;fill-opacity:1;fill-rule:nonzero;stroke:none" transform="matrix(.13333 0 0 -.13333 -1035.998 4674.986)"/><path d="M21067.7 4666c-207.6 0-407.7 49.8-598.7 149.1-769 400.1-1144.5 1493.7-1243.8 1828.8-1036.2 298.5-1791.2 1141.3-2131.8 2384.3-450.2 1642.4-75 3590.4 872.7 4531.1 66.3 65.9 173.5 65.5 239.4-.9 65.8-66.3 65.4-173.5-.9-239.4-853.6-847.2-1198.3-2692.7-784.8-4201.4 317.4-1158 1022-1929.1 1983.8-2171.3 60.4-15.2 107.6-62.4 122.8-122.8 3.3-12.9 340.8-1314.2 1099.5-1708.4 265.2-137.8 546-146.8 858.7-27.6 685.7 261.4 907.8 1075.7 726.4 1711.9-284.8 999.1-760.6 1828.2-1110.9 2271.1-533.3 674.1-448.9 2207.6 615.2 3607 56.6 74.3 162.7 88.8 237.2 32.2 74.4-56.6 88.9-162.8 32.3-237.2-921.9-1212.2-1064.4-2629.2-619.2-3192 370.4-468.3 872.6-1341.6 1171-2388.3 223.2-783-64.2-1790.4-931.4-2121.1-183.7-70-363.3-105.1-537.5-105.1" style="fill:#371a45;fill-opacity:1;fill-rule:nonzero;stroke:none" transform="matrix(.13333 0 0 -.13333 -1035.998 4674.986)"/><path d="M18677.3 8657.4c-581 0-1134.8 152.3-1576.7 536.4-62.6 54.4-69.2 149.1-14.8 211.6 54.3 62.5 149 69.2 211.6 14.8 1034.2-898.9 2800.5-283.1 3681.1 222.6 71.9 41.2 163.6 16.4 204.8-55.4 41.3-71.9 16.5-163.5-55.4-204.8-699.3-401.5-1603.8-725.2-2450.6-725.2" style="fill:#371a45;fill-opacity:1;fill-rule:nonzero;stroke:none" transform="matrix(.13333 0 0 -.13333 -1035.998 4674.986)"/><path d="M27441.3 11973.7c-729.5-1228.2-3024.3-1105.3-3024.3-1105.3l-704.2 5797.1-208.1 1714.1-11.3 92.8-186.9 1536.5s841.2 77.6 1703.7-45c204.2-28.6 409.9-68.7 605.3-123.4 261.6-73.6 505.9-173.6 706.9-308.7 177.6-118.9 321.5-266 413.6-446.1 684-1336.3 1304.9-6102.5 705.3-7112" style="fill:#fff;fill-opacity:1;fill-rule:nonzero;stroke:none" transform="matrix(.13333 0 0 -.13333 -1035.998 4674.986)"/><path d="M24605 10694.9c-111.1 0-181.7 3.4-197.1 4.2-93.3 5-164.9 84.7-160 178 5 93.3 83.6 165.1 178 160.1 21.8-1.2 2201.6-102.4 2869.8 1022.8 248 417.5 288.6 1692.8 106.1 3328.3-173 1549.4-501 3004.1-816.4 3620-453.5 885.7-2509.1 900.8-3263 832-93.3-8.9-175.5 60-184 153.1s60 175.5 153.1 184c119.9 11.1 2945 255.2 3595.3-1014.8 332.2-648.9 674.4-2150.6 851.4-3736.7 92.8-831.2 263.8-2839.8-151.3-3538.7-650.9-1095.8-2390.1-1192.3-2981.9-1192.3" style="fill:#371a45;fill-opacity:1;fill-rule:nonzero;stroke:none" transform="matrix(.13333 0 0 -.13333 -1035.998 4674.986)"/><path d="m27419.6 15236.9-1518.6-297.1c-135.6-26.6-236.3-141-244.7-278.9-30.7-504.9-41-1674.8 485-1998.3 436.7-268.4 1080.2-154.3 1421.7 212.2 382.1 409.9 289.2 1545.1 215.8 2103.9-22.8 173.7-187.3 291.9-359.2 258.2" style="fill:#fff;fill-opacity:1;fill-rule:nonzero;stroke:none" transform="matrix(.13333 0 0 -.13333 -1035.998 4674.986)"/><path d="M27419.6 15236.9h.5-.5m58.8-163.5c-8.7 0-17.5-.9-26.3-2.6l-1518.6-297.1c-60.1-11.8-104.6-62.3-108.3-123-58.4-962.8 92.9-1652.1 404.8-1843.9 358-220 911.7-136 1209.2 183.4 236 253.3 300.3 988.4 171.8 1966.4-4.9 37.2-24.2 69.6-54.6 91.5-23.2 16.6-50.2 25.3-78 25.3m-783.2-2727.5c-228.1 0-452.9 56-642.5 172.6-583.9 358.9-604.9 1502.8-565.4 2152.7 13 214.5 169.8 393.3 381.2 434.7l1518.6 297.1c127.7 25.1 261.4-4.2 366.9-80.1 105.6-75.9 175.8-193.3 192.7-322.2 103.1-784.7 141.6-1810.5-259.8-2241.3-250.8-269.1-625.5-413.4-991.7-413.5" style="fill:#371a45;fill-opacity:1;fill-rule:nonzero;stroke:none" transform="matrix(.13333 0 0 -.13333 -1035.998 4674.986)"/><path d="M26274 14435.3c40.8-191 62.3-374.1 97.1-554.2 33.8-179.4 76.2-355.1 140.8-516.4 64.2-160.9 152.2-306.8 269.1-409.4 116.1-103.5 260.4-159.6 417.5-177.2h.4c92.9-10.4 159.9-94.2 149.5-187.1-10.3-93-94.1-160-187.1-149.6-4.1.4-8.5 1.1-12.5 1.9-105.6 19.8-211.1 52.7-309.7 102.5-98.6 49.6-189.1 116.3-265.1 194.2-153.2 156.7-245.4 348.9-306 537.7-60.6 190.2-91.6 381.9-113.5 570.7-22.5 188.2-31.7 377.2-56.6 553.3l-.3 2.4c-7 49 27.2 94.4 76.2 101.3 46.9 6.6 90.4-24.6 100.2-70.1M26021.7 18957.4c-43.7 28.6-100.2 42-156.2 51.3-56.8 8-114 13.7-172.2 14.5-116 2.4-232.7-3.6-348.3-17-231.2-25.8-459.2-74.6-675.6-145.3-215.5-71.9-420.7-166.7-594.4-288.8-174.7-122.1-311.1-272.1-398.7-451.4l-2.2-4.5c-41.2-84.2-142.7-119-226.8-77.9-76.1 37.2-111.9 123.8-87.6 202.2 41.4 134.8 113.5 260.4 203 367 89 107.4 195.2 196.4 307.4 269.4 224.9 147.8 475 227 722.2 279.2 248.5 50.1 499.7 65.8 748.4 51.7 124.4-8.3 248.5-23.3 370.5-52.8 60.9-13.8 121.6-32.7 180.5-56.5 58.4-24.3 117.8-54.6 164-106.7 8.8-10 7.9-25.2-2.1-34-8.3-7.4-20.3-8-29.2-2.2l-2.7 1.8" style="fill:#371a45;fill-opacity:1;fill-rule:nonzero;stroke:none" transform="matrix(.13333 0 0 -.13333 -1035.998 4674.986)"/><path d="M25742.3 19147.5c-10.3 2.7-20.7 5.2-31.1 7.5-122 29.5-246.1 44.5-370.5 52.8-1.1.1-2.2.1-3.4.2-69.7 69.7-140.6 138.3-212.7 205.6-37.5 34-75.1 67.8-112.9 101.4 148.2 58.5 293.8 122.2 436.6 191 270.6-66.4 521.8-157.9 725.4-282-139.6-98-283.5-190.3-431.4-276.5" style="fill:#b9afbe;fill-opacity:1;fill-rule:nonzero;stroke:none" transform="matrix(.13333 0 0 -.13333 -1035.998 4674.986)"/><path d="M26173.7 19424c-203.6 124.1-454.8 215.6-725.4 282 77.3 37.3 154 76.1 229.6 116.3 238-71.6 459.6-166.2 644.5-290.5-49-36.6-98.6-72.6-148.7-107.8M25517.5 19022.7c-59.2 62.6-119.3 124.4-180.2 185.3 1.2-.1 2.3-.1 3.4-.2 124.4-8.3 248.5-23.3 370.5-52.8 10.4-2.3 20.8-4.8 31.1-7.5-73.9-43.1-148.9-84.7-224.8-124.8" style="fill:#371a45;fill-opacity:1;fill-rule:nonzero;stroke:none" transform="matrix(.13333 0 0 -.13333 -1035.998 4674.986)"/><path d="m18544 21670.8-63.9-604.5-188.1-1780-57.1-541.4-67.5-639.4c-219.4 75.1-432 157.5-637.4 246.8-4400 1905.8-5624.6 6856.8-5097.7 9342.6 260 1226.6 422.4 1429.5 1346.3 1517.1 1473.8 139.5 1821.8-216.2 2061.8-1857.9 76.7-524.1 174.8-1038.6 293-1530.9 14.4-61.9 29.7-123.4 45-184.5 26.9-106.9 55-213 84.4-317.5 93.6-339.2 197.7-665.1 311.1-973.4 479.8-1306.2 1128.9-2298.4 1911-2651.7 4.4-2 8.8-4 13.3-5.7 15.2-6.8 30.5-13.2 45.8-19.6" style="fill:#fff;fill-opacity:1;fill-rule:nonzero;stroke:none" transform="matrix(.13333 0 0 -.13333 -1035.998 4674.986)"/><path d="M17440.5 18576.7c-1262.6 577.1-2242.4 1407.6-2984 2348.8 116.5 102.2 227.4 205.2 333 308.4 626.3-833.2 1628.8-1435.6 2740.5-1917.1 48.8-21.2 97.9-42 147.5-62.4l-1.8-4c-1.9.7-3.8 1.4-5.8 2-5.3 1.5-10.6 2.2-15.8 2.2-24.7 0-47.4-16.1-54.6-41-60.8-210.6-113.3-423-159-636.9m-3166 2588.3c-762.5 1041.7-1249.1 2200.1-1517.8 3293.1 54.2-14 110.2-23.1 167.5-27.1 21-1.4 41.9-2.1 62.8-2.1h.8c322.4 0 617.8 168.6 781.8 450.5l483 830c2.4-125.4-.8-255-15.7-388.2-113.3-1018.3-339.3-2244 138.2-3372.7 68.4-161.4 149.2-315.6 241.4-463-108.1-107.4-221.9-214.4-342-320.5" style="fill:#b9afbe;fill-opacity:1;fill-rule:nonzero;stroke:none" transform="matrix(.13333 0 0 -.13333 -1035.998 4674.986)"/><path d="M18167.4 17936.1c-18.2 0-36.7 2.9-54.9 9.2-2818 965.3-4283.7 3000.6-5016.9 4538.1-990.7 2077.2-1077.7 4072.1-828.8 5246.4 260.4 1228.2 441.3 1550.7 1495.8 1650.6 1548 146.9 1988.6-246.2 2245.3-2001.8 430.8-2946.9 1427-5073.9 2599.8-5550.9 86.6-35.3 128.3-134 93-220.6-35.2-86.6-134-128.2-220.5-93-1534.2 624-2456.1 3413.3-2807.3 5815.5-232 1586.9-512.8 1843.1-1878.4 1713.8-805.9-76.4-938.6-167.4-1196.5-1383.8-498.6-2351.7 668.1-7696.3 5624.3-9394.1 88.4-30.3 135.5-126.5 105.2-214.9-24-70.3-89.7-114.5-160.1-114.5" style="fill:#371a45;fill-opacity:1;fill-rule:nonzero;stroke:none" transform="matrix(.13333 0 0 -.13333 -1035.998 4674.986)"/><path d="M14237 20784.4c-42.6 0-85 18.1-114.7 53.3-53.4 63.3-45.4 157.9 17.9 211.4 1790.8 1511.4 2293.9 3293.1 2298.7 3311 21.9 79.8 104.3 126.9 184.2 105.2 79.8-21.8 127-104.1 105.3-184-20.7-76.3-528.7-1886.6-2394.7-3461.5-28.2-23.7-62.5-35.4-96.7-35.4" style="fill:#371a45;fill-opacity:1;fill-rule:nonzero;stroke:none" transform="matrix(.13333 0 0 -.13333 -1035.998 4674.986)"/><path d="M24420.2 4138.2c-1680.8-561.1-2395.7 2171.5-2395.7 2171.5-1391.8 1833-879.4 4372.2-879.4 4372.2-901.9 98.1-1345.2 153.6-2000.7 475.5-521.6 256.4-951.3 718.6-1260.3 1408.3-107.3 240.3-200.2 508-276.9 804.2-308.3 1186-360.5 2828.2-77.2 4982.4 36.2 275.7 78 559.8 125.4 852.4l12 26.9 176.5 398.3 636.2 1436.4 33.3 75.2 4360.3 609.6 927.6-1818.6 445.3-872.5c6.8-156.3 18.9-310.7 34.9-463.4 19.7-186.1 45.5-369.3 75.6-551 199.3-1198.9 594-2319.8 706.5-3556.4 31-340 40.6-688.5 18.9-1049.8-5.2-85.2-10-168.8-14.8-251.2-52.3-919.5-78-1683.2-83.6-2325.8-17.7-2034 171.2-2860.7 395.8-3614.7 469.5-1577.1 314.3-2684.7-959.7-3109.5" style="fill:#fff;fill-opacity:1;fill-rule:nonzero;stroke:none" transform="matrix(.13333 0 0 -.13333 -1035.998 4674.986)"/><path d="m21327.1 10831.7-163.6 18.5c-443.4 50.2-885.2 90.9-1294.6 205.4-204.7 58.1-403.3 135.3-598.1 229.2-191.2 90.4-363.1 201.5-519.7 340-220.6 194-401.8 432.2-550.7 692.8 576-488.3 1266.4-598.2 1888.9-598.2 254.7 0 498 18.4 717.5 36.8s415.1 36.8 574.3 36.8c223.6 0 375.5-36.3 421.1-159.7 151.1-409.1-180.8-459.7-475.1-801.6" style="fill:#b9afbe;fill-opacity:1;fill-rule:nonzero;stroke:none" transform="matrix(.13333 0 0 -.13333 -1035.998 4674.986)"/><path d="M23978.1 4232c-48.8 0-97.3 3.4-145.3 10.3-170.6 23.9-334.4 91.8-483.3 191.5-149.3 99.2-283.2 229.5-401.9 375.2-119 145.5-224.2 305.9-318.3 473.7-12.2 21.6-24.2 43.3-35.9 65.2 305.3-263.3 681.4-519.5 1079.8-519.5 37.6 0 75.3 2.3 113.2 7.1 1964.9 247.2 1607.2 1716.9 1014.4 3566.5-239.9 749.1-332 1981.7-363.7 3645.6-6.5 319.9 8.8 689.3 1.2 1079.5-211.9-12.5-457.3-20.2-740.5-20.2-361.3 0-784.2 12.5-1277.9 43.1l-6.8-170c-15.7-389-338.8-696.6-724.5-696.6-9.6 0-19.1.2-28.7.5l-3364.7 133.1c-56.1 2.1-110.6 10.7-162.6 25-36.3 69.7-70.4 140.8-102.5 212.7-36 81.9-69.2 165.2-100.2 249.5 47-14.4 95.5-24.9 145-31.2 7.8-1 15.6-1.9 23.3-2.7 12.6-1.2 25.2-2.2 37.8-2.9l3309.5-186.6c16.5-.9 32.9-1.4 49.3-1.4h.5c211.6 0 413.7 77.3 573.7 220.2 56.2 50.2 104.9 106.5 145.5 167.5 84.1 126.2 133.4 272.7 142.1 427.5l.8 14.7c533.3-38.8 981-54 1355.6-54 410.8 0 733.5 18.4 984.3 44.2 9-82.3 17.1-164.6 22-246.3 18.5-299.5 14.2-601.4-.9-906.5-12.9-305.7-42-612.6-33.4-938.7 3.9-82.2 8.4-164.9 22.7-250.8 12.4-85 34.2-173.5 70.4-261.5 10.4-26.7 22.8-53.4 37.2-79.7-3.1-434.3 3.3-869.2 24.5-1305.2 19.9-404.5 57.3-810.3 121.2-1214.5 34.8-201.7 72.3-403.5 122.2-602.2 22.9-100 50.9-198 77.1-296.7l83.7-289.6c106.6-377.2 189.9-761.4 206.2-1142 18-378.4-38.8-758.4-230.6-1057.2-48.3-74-103.4-143.2-165.1-206.8-63.2-62.3-131.8-119.6-206.1-170.9-149.7-100.4-319.6-180.2-497.2-236.6-122.8-40.4-248.7-62.3-373.1-62.3m188.8 10801.8c-57.6 397-135.5 954.5-183.6 1314.9 40.5-149.9 87.5-296.5 135.6-442.9 91.9-286.4 202.6-567.2 281.2-858-77.5-5.9-155.6-10.5-233.2-14" style="fill:#b9afbe;fill-opacity:1;fill-rule:nonzero;stroke:none" transform="matrix(.13333 0 0 -.13333 -1035.998 4674.986)"/><path d="M17710.9 19195.5c-33-897.5-133.7-1778.2-166.1-2663-20.5-441.8-24.9-883.6-11-1323.8 15-439.8 53.8-878.8 131.1-1308.9 20-107.3 39.9-214.7 65.9-320.4 22.7-106.7 52.8-210.9 80.9-315.8 61.7-207.7 132-412.4 218.4-608.9 174.4-390.7 408.1-754.8 721-1029.9 156.6-138.5 328.5-249.6 519.7-340 194.8-93.9 393.4-171.1 598.1-229.2 409.4-114.5 851.2-155.2 1294.6-205.4l181.9-20.5-34.3-181.2c-15.9-83.9-29.3-179.1-40.4-270-11.3-92-20.3-184.6-27.4-277.4-14.2-185.7-21.2-372.1-20.7-558.5 1.8-372.5 30.2-745.1 95.5-1110.3 32-182.7 71.8-363.8 122.8-541.4 23.4-89.5 53.8-176.7 81.6-264.7 31.7-86.5 61.2-174 97.5-258.5 137-341.9 320.6-662.5 539.3-955.7l20-26.8 8.9-32.7c24-87.5 54.9-183.1 86.5-273.8 32.1-91.7 66.3-182.9 103.5-272.7 73.5-180 156.8-355.5 251.1-523.3 94.1-167.8 199.3-328.2 318.3-473.7 118.7-145.7 252.6-276 401.9-375.2 148.9-99.7 312.7-167.6 483.3-191.5 170.5-24.6 347.4-4.3 518.4 52 177.6 56.4 347.5 136.2 497.2 236.6 74.3 51.3 142.9 108.6 206.1 170.9 61.7 63.6 116.8 132.8 165.1 206.8 191.8 298.8 248.6 678.8 230.6 1057.2-16.3 380.6-99.6 764.8-206.2 1142l-83.7 289.6c-26.2 98.7-54.2 196.7-77.1 296.7-49.9 198.7-87.4 400.5-122.2 602.2-63.9 404.2-101.3 810-121.2 1214.5-39.4 809.4-27.4 1615.6.3 2419.7 15 402 32.9 803.8 56.2 1204.9l16.5 301 9.4 293.2c5.6 97.5-1 195.4-2.3 293.2l-3.5 146.6-10.6 146.6c-51 783.2-236.1 1557.5-433.3 2334.4-99.5 388.5-191.7 783.1-249.6 1186-15.2 100.4-27 201.7-36.5 303.3-8.4 101.6-19.8 202.7-19.8 305.4-2.1 102.3-6.6 204-.9 306.5 6.3 102.4 12.2 204.4 24.7 306 3.8 31.4 32.3 53.6 63.7 49.8 23.8-2.9 42.4-20.1 48.2-41.9l.8-2.9c26.1-98.4 45.8-196.4 65.8-294 8.3-48.8 19.4-97.5 30.9-146 11.2-48.5 20.5-97.1 30.8-145.6 10.9-48.4 19-96.9 29.9-145.3l32.7-144.9c10.8-48.2 19.8-96.7 29.7-145.1 9.9-48.3 22.3-96.4 33.2-144.7l262.2-1164.2c172.2-781.3 373.6-1572.8 425.2-2393.4l11-153.3 3.8-154c1.4-102.6 8.1-205.2 2.4-308l-9.9-307.9-16.5-299.6c-23.2-399.3-41-798.7-55.9-1198-27.6-798.4-39.2-1597.4-.5-2390.2 19.4-396.3 56-790.2 117.3-1178.1 33.4-193.4 69.1-386 116.9-576.3 21.9-95.5 49-190.2 74.2-285.3l83.3-288.2c110.8-393.5 200.3-798.6 218.8-1220.2 9.8-210.4-.9-425.2-42.7-639-42.4-213.2-120.1-425.4-240.9-615-61.1-94-131.3-182.1-209.4-262.4-79.4-78.6-165.2-149.9-256-212.5-183.3-123-380.6-214.4-584.8-279.4-209.3-69-441.2-97.8-668.1-65-227.1 31.3-442.1 122.3-625.6 245.7-184.8 123.2-340.5 276.8-474.9 441.5-134.9 164.8-250 341.3-352.1 523-102 181.8-190.8 369.2-268.9 560.4-39.5 95.4-75.8 192-109.9 289.5-34.2 98.6-65.4 193.8-94.4 299.7l29-59.5c-237.8 318.2-436 665.8-583.1 1032.5-39 90.9-70.7 184.4-104.5 277-29.8 93.9-62.1 187.2-87 282.4-54.4 189.2-96.6 381.3-130.5 574.5-68.9 386.3-98.7 777.7-100.5 1168.1-.6 195.3 6.7 390.5 21.7 585.4 7.4 97.5 16.9 194.8 28.8 292.2 12.2 98.5 25 192.4 44.6 296l147.7-201.7c-222.3 24.2-445.6 48.3-670.9 80.1-225 31.3-453.5 73-678.9 136-225.2 63.7-444.4 149.3-652.1 249.4-212.8 100.2-419.8 233.4-597.7 391.6-360.2 317.2-618 724.3-806.9 1147.1-93.5 212.8-168.6 431.4-234 651.9-62.7 221.1-113.7 444.6-155.5 669.1-84.9 448.9-126.9 902.2-151.6 1354.7-23.9 452.6-18.7 905.3 3.1 1356 11.4 225.5 29.7 450.2 52 674.4 12.2 112 21.9 224.2 36.6 335.8l45.4 334.5c68.2 444.8 158 886 283.1 1319.3 8.7 30.1 40.2 47.5 70.4 38.8 25.6-7.4 41.9-31.4 41-56.9" style="fill:#371a45;fill-opacity:1;fill-rule:nonzero;stroke:none" transform="matrix(.13333 0 0 -.13333 -1035.998 4674.986)"/><path d="m17799.5 27639.5-2807.9-212.9-1416.3-2433.9c-284-488.5-1004.8-438.7-1219.6 83.4l-1070.1 2604.8-2752.96 595.2c-551.89 119.1-727.22 819.8-296.97 1185.3l1217 1033.3.64.6 929.09 789.4-284.7 2801.4c-57.6 561.6 554.5 945.3 1035.2 649l2397.1-1478.4 2577 1136.8c516.3 227.7 1070.1-235.5 936.8-784.2l-665.1-2736.8 1541.2-1722.9 336.4-375.9c375.9-421.2 106.8-1090.8-456.8-1134.2" style="fill:#ffda22;fill-opacity:1;fill-rule:nonzero;stroke:none" transform="matrix(.13333 0 0 -.13333 -1035.998 4674.986)"/><path d="M13530 32481.6 11132.9 33960c-114.7 70.7-237 102.6-355.9 102.6-160 0-313.9-57.8-435-156.9l-20.6 203.2c-18 176.7 61.1 338.5 211.6 432.9 75.8 47.4 159 71.2 242.3 71.2 82.2 0 164.5-23.2 239.6-69.5l2497.8-1540.3 2684.8 1184.5c61.1 26.9 124.4 40.2 186.9 40.2 103.7 0 205.2-36.6 290.2-107.8 136.3-114 192.5-285.1 150.6-457.7l-30.6-125.8c-115.9 88.5-259.6 141-411.6 141-90.5 0-183.8-18.6-276-59.2l-2577-1136.8" style="fill:#fff4bc;fill-opacity:1;fill-rule:nonzero;stroke:none" transform="matrix(.13333 0 0 -.13333 -1035.998 4674.986)"/><path d="M12987.5 25103.8c-174.7 0-348.9 65.5-479 193.4l-1059.8 2578.9-64.1 13.8-99 241-2752.96 595.2c-122 26.4-225.53 81.1-308.19 154.4-22.17 155.2 34.57 305.4 156.99 409.4l678.7 576.4c-142.82-368.4-123.91-703.2 272.82-860.8 260.72-103.4 669.84-136.4 1085.54-136.4 252.4 0 507.3 12.2 732.8 28.1 24.7 1.7 49.2 2.6 73.7 2.6 413.5 0 791.7-245.7 958.2-629.2 275.8-635.2 701.7-1472.6 1029.8-1472.6 372.3 0 772.9 844 1032.9 1516 158.7 410.2 550.8 673.6 979.9 673.6 51.1 0 102.7-3.7 154.5-11.4 414.1-61.3 918.9-117.8 1372.3-117.8 116.9 0 230.3 3.7 337.9 12.1-169.2-275.9-316-565.5-440.1-868.1l-1658.8-125.8-1416.3-2433.9c-132.7-228.2-360.6-338.9-587.8-338.9" style="fill:#b9972e;fill-opacity:1;fill-rule:nonzero;stroke:none" transform="matrix(.13333 0 0 -.13333 -1035.998 4674.986)"/><path d="M10775.3 34613c-83.3 0-166.5-23.8-242.3-71.2-150.5-94.4-229.6-256.2-211.6-432.9l296.7-2919.5-2236.66-1899.5c-135.4-115-190.45-286.6-147.26-458.9 43.19-172.3 172.62-297.6 346.26-335.1l2868.26-619.8 1115.4-2714.3c67.6-164.3 213.7-269.7 390.9-281.8 177-12.5 336.4 72.2 425.7 225.7l1475.9 2536.4 2926.1 222.1c177.1 13.4 322.4 119.8 388.8 284.6 66.3 164.8 35.2 342.2-83.2 474.6l-1956.1 2187.5 693 2851.5c41.9 172.6-14.3 343.7-150.6 457.7-136.2 114-314.5 139.3-477.1 67.6l-2684.8-1184.5-2497.8 1540.3c-75.1 46.3-157.4 69.5-239.6 69.5m2212.5-10184.1c-21.1-.1-42.3.7-63.6 2.1-346.7 23.8-644.2 238.3-776.3 559.8l-1025.5 2495.4-2637.03 569.9c-339.69 73.4-603.2 328.4-687.69 665.5-84.5 337.1 27.56 686.3 292.45 911.3l2056.37 1746.4-272.85 2684.1c-35.16 345.7 125.95 675.1 420.45 859.7 294.4 184.5 661.2 185.8 957 3.4l2296.4-1416 2468.4 1088.9c317.9 140.2 681.1 88.8 947.5-134.2 266.5-223.1 381.1-571.4 299-909.1l-637.1-2621.6 1798.5-2011.1c231.6-259.1 294.9-620.3 165.1-942.7-129.8-322.3-425.6-538.9-772.2-565.2l-2690.1-204.2-1357-2331.9c-164-281.9-459.4-450.5-781.8-450.5" style="fill:#371a45;fill-opacity:1;fill-rule:nonzero;stroke:none" transform="matrix(.13333 0 0 -.13333 -1035.998 4674.986)"/><path d="M15937.3 26559c-166.1 1213.2-861.1 1532-1873.9 1511.3-215.8-4.4-377.3-122.9-249.2-651.3 78.1-322.1 647.6-419.5 647.6-419.5s-299.7-494.2-201.8-1456.5" style="fill:#fff;fill-opacity:1;fill-rule:nonzero;stroke:none" transform="matrix(.13333 0 0 -.13333 -1035.998 4674.986)"/><path d="M14259.8 25373.7c-85.8 0-159.3 65-168.2 152.2-67.2 661.2 45.2 1117.6 134.2 1359.4-209.9 68.5-508.1 213.2-576.1 493.8-80.1 330.6-65 552.6 47.6 698.9 80 103.9 202.1 158.3 362.7 161.6 843.7 16.7 1839.4-155.6 2045-1657.7 12.6-92.6-52.2-177.9-144.8-190.6-92.4-13-178 52.1-190.6 144.7-135.8 991.6-629.7 1388.1-1702.7 1365.1-52.9-1.1-87-11.1-101.4-29.7-15.5-20.1-60.3-109.3 13.2-412.6 38.8-160 367.6-267.9 511.6-292.5 55.2-9.4 102.2-45.6 125.4-96.5 23.3-51 19.8-110.2-9.2-158.1-2.1-3.6-268-467.2-178.1-1351.6 9.5-93-58.2-176-151.2-185.5-5.9-.6-11.7-.9-17.4-.9M22375.7 8831.5c-893.8 0-1351.1 228.2-1383.1 244.9-73.6 38.1-102.2 128.7-64.1 202.2 38.1 73.4 128.3 102 201.7 64.3 15.7-7.9 1292.4-627.9 3825.9 315.5 77.6 28.9 164-10.6 192.9-88.2 28.9-77.7-10.6-164-88.2-192.9-1134.1-422.3-2027.7-545.8-2685.1-545.8M16157 25670.5c-10.8 51.2-18.9 102.1-23.6 152.7 8.2-35.1 16.6-70.1 25.2-104.9-.2-7.6-.4-15-.5-22.6-.4-8.3-.8-16.8-1.1-25.2M22156.4 6431.7c-.8-.5 7.4-10 12.1-16.2 4.8-6.8 12.8-14.2 19-21.4 12.5-14.8 28.6-28.4 43.4-42.7 14.4-14.9 32.2-27 48.4-40.6 16.1-13.9 33.6-26.3 52-37.9 70.3-50.7 151.1-88.2 234-122.6 167.8-65.6 354.5-92.9 543.5-94.1 190.1-5.6 381.2 29.6 572.1 68.6 93.5 26.9 188.3 52.3 282.2 81.5l277.2 103.3-261-142.4c-89.6-42.6-181.3-82-272.8-123.1-188.1-67.5-381.4-133-586.5-156.7-203.3-28-416.7-29.1-627.3 19.6-104.5 26.2-209.6 58.1-308.8 108.9-25.3 11.5-50.2 24.3-74.2 39.2-24.1 14.6-49.1 27.5-72.3 44.7-23.6 16.6-47.4 32.1-70.4 51.6-11.7 9.7-23 17.9-34.9 29.2-12.3 11.6-21.9 19.2-38.5 37.7-58.9 72.5-47.9 179.1 24.7 238.1 72.5 58.9 179.1 47.9 238.1-24.7M19410.7 6936.5c24.2-13.5 58.5-29.8 89.8-43.3 32.1-14.3 65.1-27.4 98.5-40 33.1-13.1 67.3-23.6 101.2-35.6l103.3-30.8c139.1-37.9 282.7-62.1 428-72 72.9-6.7 145.7-4.4 219.4-3.8 36.6 1.7 73 6.1 109.8 9l55.2 5 54.5 9.6c147.5 19.8 288.9 69.6 429.6 125-128.8-77.3-264.1-152-411.5-197.4l-54.6-19.3-55.9-14.7c-37.5-9.3-74.9-20.2-112.9-28.3-76.2-13.6-153.1-28.6-230.9-34.4-155.5-15.2-313.5-15-470.7.8l-117.7 14.7c-39 6.9-78.5 12.2-117.5 20.5-39.1 7.8-78.3 16.2-117.4 26.3-40.1 10.2-76.4 20.1-121.6 35.7l-.4.2c-78.3 27.1-119.8 112.5-92.7 190.7 27.1 78.3 112.5 119.8 190.8 92.7 8-2.8 16.4-6.7 23.7-10.6" style="fill:#371a45;fill-opacity:1;fill-rule:nonzero;stroke:none" transform="matrix(.13333 0 0 -.13333 -1035.998 4674.986)"/><path d="M16858.8 14568.8c1.1-346.3 282.7-626.2 629-625.1 346.3 1.1 626.2 282.7 625.1 629-1.1 346.3-282.7 626.2-629 625.1-346.3-1.1-626.2-282.7-625.1-629" style="fill:#fff;fill-opacity:1;fill-rule:nonzero;stroke:none" transform="matrix(.13333 0 0 -.13333 -1035.998 4674.986)"/><path d="M17341.2 14116.1c-192.1 61.3-331.8 241-332.4 453.2-.1 39 4.4 77.3 13.3 114.2 88.5-96.4 206.8-165.2 340.3-191.5l-21.2-375.9" style="fill:#b9afbe;fill-opacity:1;fill-rule:nonzero;stroke:none" transform="matrix(.13333 0 0 -.13333 -1035.998 4674.986)"/><path d="M17008.8 14569.3c.8-263.1 215.2-476.3 478.5-475.6 127.5.4 247.1 50.4 336.9 140.8 89.9 90.4 139.1 210.3 138.7 337.7-.4 127.5-50.4 247.1-140.8 336.9-90 89.5-209.3 138.7-336.2 138.7h-1.5c-127.5-.4-247.1-50.4-336.9-140.8-89.9-90.3-139.1-210.3-138.7-337.7m477-775.6c-427.3 0-775.6 347-777 774.6-.6 207.6 79.6 403 225.9 550.2 146.3 147.2 341.2 228.7 548.7 229.3h2.6c206.6 0 401-80.1 547.6-225.9 147.2-146.3 228.7-341.2 229.3-548.7.7-207.6-79.6-403-225.9-550.2-146.3-147.2-341.2-228.7-548.7-229.3h-2.5" style="fill:#371a45;fill-opacity:1;fill-rule:nonzero;stroke:none" transform="matrix(.13333 0 0 -.13333 -1035.998 4674.986)"/><path d="m18144.4 13017.2 3309.8-186.5c391.7-22.2 730.6 280.4 752.8 672.6l99.1 1761.3c19.4 343.4-210.3 645.6-530.9 730.3-45.4 12.3-92.8 19.7-141.6 22.5l-3309.3 186.5c-392.2 22.2-731.1-280.3-752.8-672.6l-78.9-1394.9-20.8-366.4c-22.2-392.2 280.9-730.6 672.6-752.8" style="fill:#fff;fill-opacity:1;fill-rule:nonzero;stroke:none" transform="matrix(.13333 0 0 -.13333 -1035.998 4674.986)"/><path d="M25910.4 14472.6c-14.7-487.7-497.4-675.2-497.4-675.2s-667.5-348.9-3426.5-107.9c0 0-782.5 796 183 1288.4 0 0 1922-277.7 3199.3 74.4 230.4 63.5 554.8-144 541.6-579.7" style="fill:#fff;fill-opacity:1;fill-rule:nonzero;stroke:none" transform="matrix(.13333 0 0 -.13333 -1035.998 4674.986)"/><path d="m18144.4 13017.2 3309.8-186.5c391.7-22.2 730.6 280.4 752.8 672.6l99.1 1761.3c19.4 343.4-210.3 645.6-530.9 730.3-45.4 12.3-92.8 19.7-141.6 22.5l-3309.3 186.5c-392.2 22.2-731.1-280.3-752.8-672.6l-78.9-1394.9-20.8-366.4c-22.2-392.2 280.9-730.6 672.6-752.8" style="fill:#fff;fill-opacity:1;fill-rule:nonzero;stroke:none" transform="matrix(.13333 0 0 -.13333 -1035.998 4674.986)"/><path d="M20648.7 13039.8c-10.7 0-21.5.3-32.3 1l-2582.9 145.8c-102.7 28.6-195.5 86.2-268.7 168.2-100.7 112.7-151.5 257.2-143.1 406.7l16.8 298.8c296.8-137.1 733.9-243.6 1377.5-269.5 82.1-3.3 161.3-4.9 237.8-4.9 367.9 0 672.1 38 925.1 113.6l203.3-10.4c7.9-.3 15.7-.5 23.5-.5 264.1 0 493.3 225.7 557.5 532.9 144.2 188.2 250.7 418.1 334.3 689l-86.8-1538.6c-8.3-149.6-75-287.4-187.7-388.1-104.6-93.5-236.4-144-374.3-144" style="fill:#b9afbe;fill-opacity:1;fill-rule:nonzero;stroke:none" transform="matrix(.13333 0 0 -.13333 -1035.998 4674.986)"/><path d="M18283.6 16055.2c-296.5 0-545.7-232.5-562.6-532.1l-99.3-1761.6c-8.4-149.5 42.4-294 143.1-406.7 100.7-112.8 238.5-179.5 388.1-187.9l3309.5-186.6c149.7-8.2 294.1 42.4 406.8 143.1 112.7 100.7 179.4 238.5 187.9 388.1l99.3 1761.6c8.4 149.5-42.4 294-143.1 406.7-100.7 112.8-238.5 179.5-388.1 187.9l-3309.6 186.6c-10.7.6-21.4.9-32 .9m3211.2-3375.8c-16.4 0-32.8.5-49.3 1.4l-3309.5 186.6c-229.6 12.9-440.9 115-595 287.5-154 172.5-231.8 393.9-218.8 623.5l99.3 1761.6c26.8 475.5 435.5 840.8 911 813.8l3309.6-186.6c229.5-12.9 440.8-115 594.9-287.5 154.1-172.5 231.8-393.9 218.9-623.5l-99.3-1761.6c-13-229.6-115.1-440.8-287.6-594.9-160.1-143-362.4-220.3-574.2-220.3" style="fill:#371a45;fill-opacity:1;fill-rule:nonzero;stroke:none" transform="matrix(.13333 0 0 -.13333 -1035.998 4674.986)"/><path d="M18012.3 13037.7c42.4-11.3 86.2-18.1 132.1-20.5l3309.8-186.5c287-16 545.6 141.8 672 382.3 46 87.4 74.6 185.6 80.3 290.3l44.4 782.5 14.6 258.1 40.6 720.7c22.2 392.2-280.8 730.6-672.5 752.8l-715.2 40.1c326.1-80.7 560.8-385.4 541.4-732.3l-53.3-951.4-45.8-810.4c-22.2-391.7-361.1-694.7-752.8-672.5l-2595.6 146.8" style="fill:#fff;fill-opacity:1;fill-rule:nonzero;stroke:none" transform="matrix(.13333 0 0 -.13333 -1035.998 4674.986)"/><path d="M21494.4 12979.5c-10.5 0-21.1.3-31.8.9l-205.9 11.6c152.1 150.8 241.6 349 253.5 563.1l37.3 661.6c55.7-347.2 318.4-618.5 332-632.3l38.8-39.5 55.1-4.8c28.5-2.5 56.7-4.9 84.8-7.3l-1.2-21.2v-.1c-8.4-149.6-75.1-287.4-187.9-388.2-104.6-93.5-236.9-143.8-374.7-143.8" style="fill:#b9afbe;fill-opacity:1;fill-rule:nonzero;stroke:none" transform="matrix(.13333 0 0 -.13333 -1035.998 4674.986)"/><path d="m21256.7 12992 205.9-11.6c149.2-8.4 293.8 42.3 406.5 142.9 112.8 100.8 179.5 238.6 187.9 388.2v.1l99.2 1761.5c8.5 149.6-42.2 294-143 406.7-100.7 112.8-238.6 179.5-388.2 188l-183.4 10.4c116.5-157.6 179.6-354.5 167.9-561.6l-99.3-1761.5c-11.9-214.1-101.4-412.3-253.5-563.1m238.6-312.6c-16.5 0-33 .5-49.6 1.4l-3309.8 186.7c-53.9 2.7-108.5 11.1-161.5 24.9l46.2 294.9 2595.8-146.5c149.6-8.6 293.8 42.3 406.6 143 112.7 100.7 179.4 238.5 187.7 388.1l99.3 1761.6c15.2 270-164.6 513.4-427.5 578.7l44.5 295.3 714.9-40.1c475.9-27.1 840.9-435.9 813.8-911.3l-99.2-1761.4c-12.9-229.6-114.9-440.9-287.5-595.1-160-142.9-362.1-220.2-573.7-220.2" style="fill:#371a45;fill-opacity:1;fill-rule:nonzero;stroke:none" transform="matrix(.13333 0 0 -.13333 -1035.998 4674.986)"/><path d="M19954.4 14603.6c-3.3-65.2 61.7-595.8 61.7-595.8s166.6-8.4 371.2-18.8c255.6-12.9 476.2 241.3 492.7 567.7 16.6 326.5-177.3 601.6-432.9 614.6-172.5 8.7-371.2 18.8-371.2 18.8s-116.1-480.4-121.5-586.5" style="fill:#22a7f0;fill-opacity:1;fill-rule:nonzero;stroke:none" transform="matrix(.13333 0 0 -.13333 -1035.998 4674.986)"/><path d="M20406.4 14088.5c-4.6 0-9.3.2-14.1.4l-113.6 5.8c129.1 99.8 219.8 276.1 230.1 480.8 1.4 27.7 1.3 55-.2 81.8-.6 10.4-1.4 20.7-2.4 31-2.6 26.4-6.6 52.3-12 77.4-26.5 126.2-85.6 235.4-165.8 311.5l113.7-5.8c92.2-4.7 178.1-57 241.8-147.4 68.9-97.9 103.1-226.6 96.2-362.2-13.4-264.5-179-473.3-373.7-473.3" style="fill:#2976b4;fill-opacity:1;fill-rule:nonzero;stroke:none" transform="matrix(.13333 0 0 -.13333 -1035.998 4674.986)"/><path d="m20105.2 14103.4 287.1-14.5c200.7-10.4 374.1 202.1 387.8 472.9 6.9 135.6-27.3 264.3-96.2 362.2-63.7 90.4-149.6 142.7-241.8 147.4l-288.2 14.6c-42.8-182.5-96.4-425.9-99.6-487.2-1-36.7 23.7-267.1 50.9-495.4m300.5-214.8c-7.8 0-15.6.2-23.5.5l-455.2 23.1-10.2 83.5c-15.5 126.5-65.7 544.4-62.3 612.9 5.7 112.3 112.1 554.9 124.2 605l19.5 80.5 454-23c155-7.8 295.3-90.2 395.2-231.9 94.6-134.3 141.6-307.4 132.5-487.5-18.8-371.4-274-663.1-574.2-663.1" style="fill:#371a45;fill-opacity:1;fill-rule:nonzero;stroke:none" transform="matrix(.13333 0 0 -.13333 -1035.998 4674.986)"/><path d="M19583.2 14622.4c-16.5-326.5 177.3-601.6 432.9-614.6 255.6-12.9 476.2 241.2 492.7 567.7 16.5 326.5-177.3 601.6-432.9 614.6-255.6 12.9-476.2-241.3-492.7-567.7" style="fill:#22a7f0;fill-opacity:1;fill-rule:nonzero;stroke:none" transform="matrix(.13333 0 0 -.13333 -1035.998 4674.986)"/><path d="M20035 14007.4c-6.2 0-12.5.2-18.7.5-214.5 10.9-385.6 206.1-425.3 461.7.1-.4.2-.8.3-1.3 9.1 63.1 25.9 122.6 49.1 177.1 74.3-166.4 212-281 374.8-289.2 6.2-.4 12.3-.5 18.5-.5 177.6 0 336.4 128.6 417.6 319.3 23.5-52.6 40.7-110.4 50.3-171.6 3.5 23.3 5.9 47.7 7.2 72.1-16.3-318.4-226.5-568.1-473.8-568.1m-452.6 583.7c.1 10.4.4 20.9 1 31.4-.6-10.5-.9-21-1-31.4" style="fill:#2976b4;fill-opacity:1;fill-rule:nonzero;stroke:none" transform="matrix(.13333 0 0 -.13333 -1035.998 4674.986)"/><path d="M20506.2 14688.3c-2.7 26.4-6.7 52.2-12 77.4 5.4-25.1 9.4-51 12-77.4" style="fill:#2e568d;fill-opacity:1;fill-rule:nonzero;stroke:none" transform="matrix(.13333 0 0 -.13333 -1035.998 4674.986)"/><path d="M19591 14469.6c-6.2 39.3-9.1 79.9-8.6 121.5-.4-41.6 2.6-82.3 8.6-121.5" style="fill:#bce4fa;fill-opacity:1;fill-rule:nonzero;stroke:none" transform="matrix(.13333 0 0 -.13333 -1035.998 4674.986)"/><path d="M20508.6 14657.3c-.5 8.2-1.1 16.4-1.8 24.6-.2 2.1-.4 4.2-.6 6.4 1-10.3 1.8-20.6 2.4-31" style="fill:#bed6e8;fill-opacity:1;fill-rule:nonzero;stroke:none" transform="matrix(.13333 0 0 -.13333 -1035.998 4674.986)"/><path d="M20508.8 14575.5c1.7 36.2 1 71.7-2 106.4.7-8.2 1.3-16.4 1.8-24.6 1.5-26.8 1.6-54.1.2-81.8" style="fill:#bce4fa;fill-opacity:1;fill-rule:nonzero;stroke:none" transform="matrix(.13333 0 0 -.13333 -1035.998 4674.986)"/><path d="M19621.7 14824.5c62.5 182.8 193.7 318.5 349 355.8v-.1c-155.2-37.3-286.4-172.9-349-355.7" style="fill:#fff;fill-opacity:1;fill-rule:nonzero;stroke:none" transform="matrix(.13333 0 0 -.13333 -1035.998 4674.986)"/><path d="m20494.2 14765.7-2.1 9.9c-27.6 122-85.6 227.5-163.7 301.6 80.2-76.1 139.3-185.3 165.8-311.5" style="fill:#bed6e8;fill-opacity:1;fill-rule:nonzero;stroke:none" transform="matrix(.13333 0 0 -.13333 -1035.998 4674.986)"/><path d="M20328.4 15077.2c-1.5 1.3-2.9 2.7-4.4 4 1.5-1.3 2.9-2.7 4.4-4m-151 93.2c-32.4 11.1-66.4 17.9-101.5 19.7-6.2.3-12.4.4-18.6.4-29.5 0-58.4-3.5-86.6-10.3v.1c28.1 6.7 57 10.3 86.4 10.3 6.2 0 12.5-.2 18.8-.5 35.1-1.8 69.1-8.5 101.5-19.7" style="fill:#c3bac7;fill-opacity:1;fill-rule:nonzero;stroke:none" transform="matrix(.13333 0 0 -.13333 -1035.998 4674.986)"/><path d="M19583.4 14622.5c3.5 71.5 16.9 139.5 38.3 202 62.6 182.8 193.8 318.4 349 355.7 28.2 6.8 57.1 10.3 86.6 10.3 6.2 0 12.4-.1 18.6-.4 35.1-1.8 69.1-8.6 101.5-19.7 53.7-18.4 103.2-49 146.6-89.2 1.5-1.3 2.9-2.7 4.4-4 78.1-74.1 136.1-179.6 163.7-301.6-1.1 4.7-2.2 9.4-3.4 14.1-9.4-40.1-22-78.5-37.4-114.7-74.4 166.5-212.2 281.1-374.7 289.1-6.3.4-12.5.5-18.7.5-177.9 0-336.4-128.7-417.5-319.2-15.6 34.9-28.4 72.1-38 111.1-10.1-42.8-16.7-87.7-19-134" style="fill:#bce4fa;fill-opacity:1;fill-rule:nonzero;stroke:none" transform="matrix(.13333 0 0 -.13333 -1035.998 4674.986)"/><path d="M19591.3 14468.3c-.1.5-.2.9-.3 1.3-6 39.2-9 79.9-8.6 121.5.1 10.4.4 20.9 1 31.4 2.3 46.3 8.9 91.2 19 134 9.6-39 22.4-76.2 38-111.1-23.2-54.5-40-114-49.1-177.1" style="fill:#bed6e8;fill-opacity:1;fill-rule:nonzero;stroke:none" transform="matrix(.13333 0 0 -.13333 -1035.998 4674.986)"/><path d="M20506.8 14681.9c-2.9 32.1-7.9 63.4-14.7 93.7l2.1-9.9c5.3-25.2 9.3-51 12-77.4.2-2.2.4-4.3.6-6.4" style="fill:#c0ccdd;fill-opacity:1;fill-rule:nonzero;stroke:none" transform="matrix(.13333 0 0 -.13333 -1035.998 4674.986)"/><path d="M20501.6 14503.4c-9.6 61.2-26.8 119-50.3 171.6 15.4 36.2 28 74.6 37.4 114.7 1.2-4.7 2.3-9.4 3.4-14.1 6.8-30.3 11.8-61.6 14.7-93.7 3-34.7 3.7-70.2 2-106.4-1.3-24.4-3.7-48.8-7.2-72.1" style="fill:#bed6e8;fill-opacity:1;fill-rule:nonzero;stroke:none" transform="matrix(.13333 0 0 -.13333 -1035.998 4674.986)"/><path d="M20057.1 15090.5c-194.3 0-360.6-208.6-374-473.2-6.9-135.7 27.3-264.3 96.2-362.2 63.7-90.4 149.6-142.7 241.8-147.4 92.8-5.1 183 38.7 255.5 122.2 78.5 90.5 125.5 215 132.3 350.7 6.9 135.6-27.3 264.3-96.2 362.2-63.7 90.4-149.6 142.7-241.8 147.4-4.6.2-9.2.3-13.8.3zm-21.9-1183.2c-8.1 0-16.1.2-24.2.6-155 7.9-295.3 90.3-395.2 232-94.5 134.3-141.6 307.4-132.5 487.5 19.3 381 287 678.6 597.7 662.5 155-7.8 295.3-90.2 395.2-232 94.5-134.2 141.6-307.3 132.5-487.4-9.1-180.1-73.4-347.6-181.1-471.7-107.7-124.1-246.3-191.5-392.4-191.5M19174.1 12847h-4.2c-69 2.3-123.1 60-120.8 129l27.9 854.9c6.7 205.1-65.3 401.9-202.7 554.3l-43.4 48.1c-185.8 206.1-282.5 483.1-265.4 760l61.4 993.2c4.2 68.9 62.7 121.8 132.4 117 68.9-4.2 121.3-63.5 117.1-132.4l-61.4-993.2c-13-210.3 60.5-420.7 201.6-577.2l43.4-48.1c180.9-200.6 275.7-459.8 266.9-729.9l-28-854.8c-2.2-67.6-57.7-120.9-124.8-120.9" style="fill:#371a45;fill-opacity:1;fill-rule:nonzero;stroke:none" transform="matrix(.13333 0 0 -.13333 -1035.998 4674.986)"/><path d="M25910.4 14472.6c-14.7-487.7-497.4-675.2-497.4-675.2s-667.5-348.9-3426.5-107.9c0 0-782.5 796 183 1288.4 0 0 1922-277.7 3199.3 74.4 230.4 63.5 554.8-144 541.6-579.7" style="fill:#fff;fill-opacity:1;fill-rule:nonzero;stroke:none" transform="matrix(.13333 0 0 -.13333 -1035.998 4674.986)"/><path d="M23712.6 13755.3c-437.3.1-981.4 21.3-1653.4 78.5-74.9 90.4-244.6 323.8-219.5 556.2 112.2-137.7 279.4-226 462.2-239.8 563.6-42.4 1031.4-58.9 1417.8-58.9 365.1 0 657.7 14.7 889.8 36 12.7-66.4 22.9-133.1 32.5-199.8 6.3-43.4 13.2-86.7 19.7-130.1-237.8-24.2-548.8-42.1-949.1-42.1" style="fill:#b9afbe;fill-opacity:1;fill-rule:nonzero;stroke:none" transform="matrix(.13333 0 0 -.13333 -1035.998 4674.986)"/><path d="M22059.2 13833.8c2593.6-220.8 3279.7 94.3 3286.4 97.6l13.1 5.8c15.3 6.1 390.4 160.4 401.8 539.9 6.7 221.1-90 330.9-148.4 376.7-63.9 50.3-141.8 70.9-203.4 53.9-1193.8-329.1-2895.6-127-3211.7-85-209.7-115.5-328.8-253.5-354.3-410.6-39-239.6 139.2-485 216.5-578.3m1653.8-378.5c-461.3 0-1033.3 23.1-1739.6 84.8l-55.1 4.8-38.8 39.5c-16.6 16.9-407 420.1-332.9 875.8 43.3 266.5 229.9 485.7 554.7 651.3l42.5 21.7 47.1-6.8c19-2.7 1906.4-269 3138.1 70.6 153.9 42.4 329.1 2.3 468.5-107.3 174.9-137.3 270.7-363.9 262.9-621.6-16.8-555.4-523.1-781.8-587.2-808.2-68.7-31.8-500.3-204.6-1760.2-204.6" style="fill:#371a45;fill-opacity:1;fill-rule:nonzero;stroke:none" transform="matrix(.13333 0 0 -.13333 -1035.998 4674.986)"/><path d="M27343.6 10743.8c-120.5-64.3-267.2-115.3-403.5-133-440.5-57.1-788.9 75.2-788.9 75.2s-150.7-94.1-301-104.1c-476.7-32.2-733.5 70.7-866.1 280.5-285 448.9-3.2 1390.6-107.3 2555.7-161.6 1802.9-937.7 3405.3-937.7 3405.3l-45.8 1037.7-25.7 575.2-66.3 1496.2-14.9 338s630.2-407.5 1413.9-1182c109.7-108.5 222.2-224.2 336.4-346.8 1079.5-1159.5 2309.7-2951.6 2587-5284.2 196.5-1652.6-195.3-2401.4-780.1-2713.7" style="fill:#fff;fill-opacity:1;fill-rule:nonzero;stroke:none" transform="matrix(.13333 0 0 -.13333 -1035.998 4674.986)"/><path d="M25681.1 10745.4c-132.8 0-261.4 15.8-364.2 57-28.9 9.1-51.2 24.7-76.2 37.1-20.9 16.4-44.3 29.9-61.2 49.7-36.9 36.4-67.3 80.4-88.8 136.3-46.1 109-61.3 250.8-67.4 394.2-8.1 291.3 19.7 600.3 33.3 910.9 15.3 311.2 20.1 627.2.6 943.8-9.6 159.1-29.8 314.7-46.6 471.4-9.5 78.1-22.8 155.6-34 233.4-11.3 77.8-23.3 155.4-38.7 232.4-53.2 309.7-128.1 614.3-208.3 916.9-81.8 302-158.8 606.5-273.6 898.2-38 97.8-78.7 194.8-124.1 289.7 459.3-539.3 835.6-1096 965.5-2311.4 124.4-1163.1-99.9-2091.2 185-2540.1 116.7-184.5 329.4-286.4 703.1-286.4 51.3 0 105.5 1.9 163 5.8 150.3 10.1 301.1 104.1 301.1 104.1s235.7-89.4 564.4-89.4c71 0 146.3 4.1 224.5 14.3 80.4 10.4 164.5 32.5 244.8 62.1-51.5-77.5-112.6-146.7-178.9-209.5-80.9-79.6-180-140.4-279.7-192.6-102.3-48.4-212.9-84.2-320.4-96-64-7.4-128.7-11.3-193.6-11.3-53.5 0-107.1 2.7-160.5 8.3-59.2 5.5-118.1 14.5-176.1 26.5-29 5.9-57.6 12.8-85.8 20.1-26.7 7.2-58.6 16.8-77.1 23.4l-78.7 28.3-71.2-43c-7.4-4.4-24.1-13.8-37.2-20.2-14-7-28.3-13.8-42.6-19.8-28.6-12.2-57.3-22.2-84.3-29-13.5-3.4-26.5-5.9-38.8-7.8l-17.8-1.9-26-1.2-107.6-4.1c-8.7-.1-17.3-.2-25.9-.2" style="fill:#b9afbe;fill-opacity:1;fill-rule:nonzero;stroke:none" transform="matrix(.13333 0 0 -.13333 -1035.998 4674.986)"/><path d="M23817.2 20317.7c502.1-207.7 915.4-548.3 1307.4-904.1 388-361.8 739.1-761.2 1071-1174.2 333.9-411.8 638.5-848.1 906.8-1306.7 268.7-458.1 501.9-938.1 690.6-1436 188.9-497.6 332.9-1013 426.1-1537.9 45.4-262.6 80.8-526.9 103.9-792.7 19-266.7 27.4-535.6 12.1-806.7-17.2-270.9-58.8-544.9-147.1-812.5-25.8-66-48.3-133-78.5-197.7-31.6-64.3-60.5-129.7-100.5-190.7-72.2-125.2-167.1-239.9-274.2-340.7-217.1-200.9-488-338.8-790.1-376.7-142.7-16.4-286.3-18.4-427.8-3.7-70.8 6.7-141.1 17.3-211.1 31.8-34.9 7.2-69.8 15.5-104.8 24.6-36.3 10-67.2 18.6-110 34.1l149.8 14.7c-25.6-15.5-42.8-24.6-64.2-35.5-20.4-10.2-41.1-19.9-62.3-28.9-42.4-18-86.6-33.8-134.4-45.9-23.9-6-48.8-11-74.6-14.7-12.9-1.9-26.5-3-39.8-4.3l-31.7-1.6c-41.2-1.5-82.1-3.8-123.6-4.6-165.5-1.2-340.7 11.2-519.3 81-44.5 15.4-87.9 41.2-130.9 65.1-41.1 29.2-83.4 57.5-118.5 95.2-72.9 71.4-129.1 159.4-163.4 247.3-36.2 88-58 176.5-70.4 261.5-14.3 85.9-18.8 168.6-22.7 250.8-8.6 326.1 20.5 633 33.4 938.7 15.1 305.1 19.4 607 .9 906.5-8.9 149-28.6 299.6-44.5 449.7-9.1 75-22 149.7-32.8 224.6-10.8 74.9-22.3 149.7-37.3 224-51.4 298.6-123.3 594.2-202.2 887.6-78.7 293.9-190.8 577.4-283.6 866.7-94.9 289.1-185.7 579.2-230.6 893.1l-.3 2.3c-4.6 32 17.7 61.6 49.6 66.2 20.2 2.9 39.7-5.2 52.3-19.3 215.9-245.4 352.6-529.7 466.1-821.4 114.8-291.7 191.8-596.2 273.6-898.2 80.2-302.6 155.1-607.2 208.3-916.9 15.4-77 27.4-154.6 38.7-232.4 11.2-77.8 24.5-155.3 34-233.4 16.8-156.7 37-312.3 46.6-471.4 19.5-316.6 14.7-632.6-.6-943.8-13.6-310.6-41.4-619.6-33.3-910.9 6.1-143.4 21.3-285.2 67.4-394.2 21.5-55.9 51.9-99.9 88.8-136.3 16.9-19.8 40.3-33.3 61.2-49.7 25-12.4 47.3-28 76.2-37.1 109.4-43.9 248.2-58.9 390.1-56.8l107.6 4.1 26 1.2 17.8 1.9c12.3 1.9 25.3 4.4 38.8 7.8 27 6.8 55.7 16.8 84.3 29 14.3 6 28.6 12.8 42.6 19.8 13.1 6.4 29.8 15.8 37.2 20.2l71.2 43 78.7-28.3c18.5-6.6 50.4-16.2 77.1-23.4 28.2-7.3 56.8-14.2 85.8-20.1 58-12 116.9-21 176.1-26.5 118.3-12.4 237.4-10.4 354.1 3 107.5 11.8 218.1 47.6 320.4 96 99.7 52.2 198.8 113 279.7 192.6 82.4 78 156.8 166.1 214.7 267.5 32.3 48.2 55.7 102.9 82 155.5 25.1 53.4 43.9 110.8 66.1 166.2 75.5 228.9 114.3 475.3 130 725.3 14.1 250.6 6.4 504.6-11.7 758.8-22.1 254.5-56.1 508.2-99.7 760.2-89.4 503.7-227.7 998.6-409.4 1477.4-181.6 479-406.3 941.8-665.9 1384.5-259.4 443-553.9 866-878.4 1265.1-162 199.8-333.5 391.9-510.4 578.5-178.3 185.5-361.7 365.7-546.6 544.4-184.1 179.6-374.1 352.9-562.6 528.6-187.6 176.6-375.4 355.9-556.5 545.1l-2.1 2.1c-21.9 22.9-21.1 59.2 1.7 81.1 17 16.2 41.3 19.9 61.6 11.5" style="fill:#371a45;fill-opacity:1;fill-rule:nonzero;stroke:none" transform="matrix(.13333 0 0 -.13333 -1035.998 4674.986)"/><path d="M24570.2 14921.6c-52.5 0-103.5 27.6-131 76.7-40.5 72.2-14.8 163.6 57.4 204.2 88.8 49.8 2185.9 1213.8 3118.5 617.5 69.8-44.6 90.2-137.4 45.6-207.2-44.6-69.8-137.3-90.2-207.2-45.6-649 414.9-2248.5-311.5-2810.1-626.4-23.2-13-48.4-19.2-73.2-19.2" style="fill:#371a45;fill-opacity:1;fill-rule:nonzero;stroke:none" transform="matrix(.13333 0 0 -.13333 -1035.998 4674.986)"/><path d="M17843.9 19629.9c-64.3 56.7-124.2 117.8-176.5 185.3-845.3 1090.1-1031.3 2101.8-1072.3 3305.2 139.2-374 309.1-724.6 508.5-1049.3 321.7-547.1 716.4-1033 1179.6-1449.3l-439.3-991.9" style="fill:#b9afbe;fill-opacity:1;fill-rule:nonzero;stroke:none" transform="matrix(.13333 0 0 -.13333 -1035.998 4674.986)"/><path d="M21888.2 18105.5c-1346.4 0-2590.2 438.5-3596.2 1180.8-19.3 13.6-38.2 27.7-57.1 42.2-131 98.8-268.9 192.9-391 301.4l439.3 991.9c111.6-100.2 227.1-196.4 346.6-288.4 1089.8-839.8 2453.1-1289.6 3883.5-1289.6 164.6 0 330.1 5.9 496.1 17.9 279.4 20.2 555.1 57.1 825.6 109.9l32.6-735.3c-620.6-214.7-1286.5-330.8-1979.4-330.8M23867.6 18436.3l-32.6 735.3c272.2 53.2 538.9 122.5 799.1 207.4 81-75.9 161.6-152.2 241-229.7 55.4-53.5 110.7-107.2 165.7-161.1-219.1-133.4-447.4-253.5-683.7-359-24.9-11.3-50.2-22.1-75.6-32.6-127.4-55.1-256.8-105.7-388.2-151.9-8.4-2.8-17.3-6-25.7-8.4" style="fill:#b9afbe;fill-opacity:1;fill-rule:nonzero;stroke:none" transform="matrix(.13333 0 0 -.13333 -1035.998 4674.986)"/><path d="M25040.8 18988.2c-55 53.9-110.3 107.6-165.7 161.1-79.4 77.5-160 153.8-241 229.7 63.7 20.8 127.3 42.6 190.2 65.2 119.6-108.2 245.7-226.9 376-355.7-52.6-34.2-105.8-67.7-159.5-100.3" style="fill:#371a45;fill-opacity:1;fill-rule:nonzero;stroke:none" transform="matrix(.13333 0 0 -.13333 -1035.998 4674.986)"/><path d="M16353.2 24975.6c1049.4-8279.5 12597.1-7232.8 12450.5 803.2-873.1 8500.8-12808.6 7407.6-12450.5-803.2" style="fill:#fff;fill-opacity:1;fill-rule:nonzero;stroke:none" transform="matrix(.13333 0 0 -.13333 -1035.998 4674.986)"/><path d="M16353.2 24975.6c1049.4-8279.5 12597.1-7232.8 12450.5 803.2-873.1 8500.8-12808.6 7407.6-12450.5-803.2" style="fill:#fff;fill-opacity:1;fill-rule:nonzero;stroke:none" transform="matrix(.13333 0 0 -.13333 -1035.998 4674.986)"/><path d="M16353.2 24975.6c1049.4-8279.5 12597.1-7232.8 12450.5 803.2-873.1 8500.8-12808.6 7407.6-12450.5-803.2" style="fill:#fff;fill-opacity:1;fill-rule:nonzero;stroke:none" transform="matrix(.13333 0 0 -.13333 -1035.998 4674.986)"/><path d="M16492.1 24987.5c528.3-4149.2 3640.8-5798.2 6493.2-5592.1 2786.3 201.4 5751 2282.3 5679.2 6375-438 4236.3-3679.7 5943.6-6506.7 5737.2-2855.4-208.8-5845.5-2337.9-5665.7-6520.1m6021.3-5887.7c-1418.1 0-2769.4 445.8-3849.4 1278-1354.6 1043.8-2201.4 2627.6-2448.9 4580.3l-1 11.5c-85.2 1953.3 510.1 3647.4 1721.6 4899.1 1080.9 1116.9 2573.1 1797.5 4201.8 1916.6 1625.4 119 3188.2-339.8 4400.6-1291.4 1367.1-1072.9 2198.4-2698.5 2404.1-4700.9l.7-11.7c34.9-1914.5-583.2-3571.5-1787.5-4791.9-1077.1-1091.4-2550.9-1756.2-4150.1-1871.7-164.6-12-328.7-17.9-491.9-17.9" style="fill:#371a45;fill-opacity:1;fill-rule:nonzero;stroke:none" transform="matrix(.13333 0 0 -.13333 -1035.998 4674.986)"/><path d="M22513.2 19434.4c-398.2.1-798.5 36.7-1193 111.9 133.4-9.7 267.7-14.9 402.8-15.5 8.9 0 17.4-.1 26.3-.1 1176.9 0 2321.6 341.9 3286.4 973.3 81-158.1 185.1-295.6 306.2-410-750.4-371.8-1562.9-585-2360.6-642.7-155.6-11.2-311.5-16.9-468.1-16.9m-765.4 446.3c-7.7 0-15.5.1-23.2.1-1257.2 5.4-2682.4 462.7-3729.3 1584.5a5671.294 5671.294 0 0 0-297 386.9c757.1-724.2 1624.7-1229.8 2566.7-1488.4 476.8-130.9 963.7-195.7 1448.7-195.7 855.9 0 1705.8 201.9 2482.4 598.8 230.9 117.9 451 251.2 659 398.2 8.4-110.6 25.7-216.1 51.1-315.9-951.3-641.7-2075-968.5-3158.4-968.5" style="fill:#b9afbe;fill-opacity:1;fill-rule:nonzero;stroke:none" transform="matrix(.13333 0 0 -.13333 -1035.998 4674.986)"/><path d="M16548 24992.2c524.8-4110.5 3608.1-5745.1 6433.3-5540.9 2760.2 199.5 5697.2 2261 5627.2 6315.7-435.1 4197.4-3645.3 5889.1-6446.6 5684.6-2828.6-206.7-5790.5-2316.5-5613.9-6459.4m5965.3-5948.4c-1430.4 0-2793.7 449.8-3883.5 1289.6-1366.7 1053.1-2220.9 2649.9-2470.3 4617.7l-1.4 16c-85.9 1969.1 514.8 3677.5 1737.3 4940.6 1090.5 1126.8 2595.6 1813.4 4238 1933.5 1639.2 119.6 3215.9-342.9 4439.3-1303.1 1379.3-1082.7 2218-2721.5 2425.2-4739.4l1-16.3c35.2-1930-588.5-3601-1803.6-4832.3-1086.6-1101.2-2573.2-1771.8-4185.9-1888.4-166-12-331.5-17.9-496.1-17.9" style="fill:#293856;fill-opacity:1;fill-rule:nonzero;stroke:none" transform="matrix(.13333 0 0 -.13333 -1035.998 4674.986)"/><path d="M16548 24992.2c524.8-4110.5 3608.1-5745.1 6433.3-5540.9 2760.2 199.5 5697.2 2261 5627.2 6315.7-435.1 4197.4-3645.3 5889.1-6446.6 5684.6-2828.6-206.7-5790.5-2316.5-5613.9-6459.4m5965.3-5948.4c-1430.4 0-2793.7 449.8-3883.5 1289.6-1366.7 1053.1-2220.9 2649.9-2470.3 4617.7l-1.4 16c-85.9 1969.1 514.8 3677.5 1737.3 4940.6 1090.5 1126.8 2595.6 1813.4 4238 1933.5 1639.2 119.6 3215.9-342.9 4439.3-1303.1 1379.3-1082.7 2218-2721.5 2425.2-4739.4l1-16.3c35.2-1930-588.5-3601-1803.6-4832.3-1086.6-1101.2-2573.2-1771.8-4185.9-1888.4-166-12-331.5-17.9-496.1-17.9" style="fill:#371a45;fill-opacity:1;fill-rule:nonzero;stroke:none" transform="matrix(.13333 0 0 -.13333 -1035.998 4674.986)"/><path d="M16678.2 23410.4c3955.1-6168.3 12056.5-2009.5 9708.9 3960.9-3035.9 6527.7-11831.7 3184.2-9708.9-3960.9" style="fill:#371a45;fill-opacity:1;fill-rule:nonzero;stroke:none" transform="matrix(.13333 0 0 -.13333 -1035.998 4674.986)"/><path d="M17128.3 28044.4c-3009.6-5899.3 5196.3-10660.7 8833-5718.9-4315.6-1814.3-8692.9 2058.2-8833 5718.9" style="fill:#21102b;fill-opacity:1;fill-rule:nonzero;stroke:none" transform="matrix(.13333 0 0 -.13333 -1035.998 4674.986)"/><path d="M16527.4 24992.4c379.2-3758 3036.6-5102.3 5197.2-5111.6 7.7 0 15.5-.1 23.2-.1 2477.1 0 5163.9 1707.9 5522.7 4983.5 131 1568.8-452.3 3198.3-1600.9 4466.1-1149.2 1268.5-2717.3 2011.6-4304.5 2040.2-3202.3-508.1-5086.4-3704.9-4837.7-6378.1m5221.9-5461.7c-8.9 0-17.4.1-26.3.1-1360.9 5.9-2644 480.7-3612.7 1337-1090.8 964.1-1758.6 2378.5-1931.2 4090.3l-.1 1.3c-136.2 1461.7 314.3 3028.7 1236.1 4299.2 976 1345.4 2364.9 2219 3910.8 2460l14.8 2.3 14.9-.2c1688.8-25.7 3355.7-811.3 4573.4-2155.4 1213.4-1339.4 1829.3-3065.1 1689.8-4734.7-176.6-1613.1-890.9-2976.1-2066.1-3945.9-1058.5-873.6-2408.4-1354-3803.4-1354" style="fill:#371a45;fill-opacity:1;fill-rule:nonzero;stroke:none" transform="matrix(.13333 0 0 -.13333 -1035.998 4674.986)"/><path d="M16857.6 23492.6c2024.3-3135.8 5052.8-3455.1 7160.8-2377.9 1913.3 977.7 3331.5 3267.2 2189.1 6179.6-1509.9 3240.5-4339.2 3875.4-6474.4 3066.6-2194.1-831-3930.8-3276-2875.5-6868.3m4856.1-3324.5c-485 0-971.9 64.8-1448.7 195.7-1481 406.6-2778.1 1423.6-3751.2 2941.2l-14.9 23.3-7.9 26.5c-512.1 1723.7-435.3 3357.8 222.1 4725.8 588.8 1225.3 1612.3 2164.8 2881.7 2645.6 1240.6 469.9 2592 452.6 3805.1-48.8 1348.4-557.2 2442.6-1672 3164.3-3223.8l4.6-10.8c550.7-1400.4 576.6-2797.5 74.8-4040.3-454.3-1125.3-1323.5-2061.3-2447.5-2635.6-776.6-396.9-1626.5-598.8-2482.4-598.8" style="fill:#371a45;fill-opacity:1;fill-rule:nonzero;stroke:none" transform="matrix(.13333 0 0 -.13333 -1035.998 4674.986)"/><path d="M28310 21123.7c-1670-2423-4239-953.2-2877.9 1520.7 1657.1 2603.8 4403.4 1032.9 2877.9-1520.7" style="fill:#fff;fill-opacity:1;fill-rule:nonzero;stroke:none" transform="matrix(.13333 0 0 -.13333 -1035.998 4674.986)"/><path d="M25836.9 20214.3c-18.9 10.1-37.3 20.7-55.3 31.9-520.4 321.3-784 1120.5-234.4 2198.4 72.3-210.7 241.1-296.5 458-299.9-3.4-5.4-6.9-10.8-10.3-16.3l-5.2-8.9c-451.1-820.1-418.4-1485.4-152.8-1905.2" style="fill:#b9afbe;fill-opacity:1;fill-rule:nonzero;stroke:none" transform="matrix(.13333 0 0 -.13333 -1035.998 4674.986)"/><path d="M28310 21123.7h.5-.5m-2709.8 1421.1c-618.6-1128.5-355-1967.4 181.4-2298.6 568.9-351.4 1550.7-193.1 2364 983.1 691.3 1161.4 418.4 2053.1-128.6 2390.5-617.5 380.9-1645.2 133.3-2416.8-1075m790.1-2853.9c-305.2 0-584.4 81.1-814 222.9-694.5 428.9-1061.4 1468.7-315.3 2824.7l6.4 10.7c907.7 1426.3 2173.6 1684.8 2954.7 1203.1 705.7-435.3 1086.7-1537.5 255.6-2928.8l-6.9-10.7c-653.9-948.6-1426.4-1321.9-2080.5-1321.9" style="fill:#371a45;fill-opacity:1;fill-rule:nonzero;stroke:none" transform="matrix(.13333 0 0 -.13333 -1035.998 4674.986)"/><path d="M28341 20927.6c-1355.4-1962.2-3298.6-893.6-2198 1107.5 1348 2140 3458.4 976.4 2198-1107.5" style="fill:#fff;fill-opacity:1;fill-rule:nonzero;stroke:none" transform="matrix(.13333 0 0 -.13333 -1035.998 4674.986)"/><path d="M28341 20927.6h.4-.4m-2047.2 1018.7c-489.4-893.2-319.8-1533.4 66.1-1771.9 420.4-260 1173.5-105.2 1834 848.3 560.1 929 386.2 1617.1-13 1863.6-462.6 285.6-1258.9 54.1-1887.1-940m481.4-2232.6c-226 0-431.1 58.9-599.4 162.9-527.4 326-789.4 1145.9-186.1 2242.9l5.2 8.9c750 1190.6 1759.9 1432.3 2369.8 1055.7 542.1-334.6 812.7-1211.8 126-2347.1l-5.7-8.9c-552.3-799.5-1187.2-1114.4-1709.8-1114.4" style="fill:#371a45;fill-opacity:1;fill-rule:nonzero;stroke:none" transform="matrix(.13333 0 0 -.13333 -1035.998 4674.986)"/><path d="M24722.4 23644.8c-565.1 0-973.8 648-565.7 1293 240.7 336.7 524.8 473.4 782.5 473.4 590.9 0 1043.4-718 518.5-1387-240.6-268.3-501.4-379.4-735.3-379.4M23716.7 22546c-250.8 0-441.1 289.3-198.1 579.9 88.3 87.7 186 124.9 275.9 124.9 250.8 0 441.1-289.3 198.2-579.9-88.3-87.7-186.1-124.9-276-124.9M17530.2 27306.2c647.4 2244 2106.3 2993.8 3519.3 2993.8 1432.8 0 2818.5-770.4 3264.9-1535.2-823.6 328.8-1580.6 470.7-2284.7 470.7-1748.2 0-3172.8-873.7-4499.5-1929.3" style="fill:#9b8da2;fill-opacity:1;fill-rule:nonzero;stroke:none" transform="matrix(.13333 0 0 -.13333 -1035.998 4674.986)"/><path d="M26778 20062c-159 0-301.4 40.2-418.1 112.4-385.9 238.5-555.5 878.7-66.1 1771.9 6.6 10.4 13.1 20.6 19.7 30.8 47.1-621.6 498.5-897.3 1020.6-897.3 361.9 0 757.6 132.5 1076.3 374.3-54.4-137-125.8-281-216.5-431.4-477.1-688.8-1002.5-960.8-1415.9-960.7" style="fill:#b9afbe;fill-opacity:1;fill-rule:nonzero;stroke:none" transform="matrix(.13333 0 0 -.13333 -1035.998 4674.986)"/><path d="M26750.1 19941.8c-682.9 0-1212 561.8-946 1663.6 106 318.2 299.8 608.5 542.4 842.4-33.8-174.8-43.5-331.5-33-470.7-6.6-10.2-13.1-20.4-19.7-30.8-489.4-893.2-319.8-1533.4 66.1-1771.9 116.7-72.2 259.1-112.4 418.1-112.4 413.4-.1 938.8 271.9 1415.9 960.7 90.7 150.4 162.1 294.4 216.5 431.4 72.4 54.9 141 115.6 204.2 181.7-351.5-1136.5-1184.3-1694-1864.5-1694M26527.9 24088.6c-167.5 0-263.3 71.1-316.7 139.1-178.7 227.7-20.7 603.6 32 713.3 46.6 97.3 163.2 138.4 260.5 91.6 97.2-46.6 138.2-163 91.8-260.2-48.3-101.7-82.4-235.7-76.7-293.2 14.8-.9 40.2.2 80.5 8.6 105.8 22.1 209.1-45.4 231.3-150.9 22.2-105.6-45.4-209.2-151-231.4-56.1-11.7-106.5-16.9-151.7-16.9" style="fill:#371a45;fill-opacity:1;fill-rule:nonzero;stroke:none" transform="matrix(.13333 0 0 -.13333 -1035.998 4674.986)"/></svg>